<?xml version="1.0" encoding="utf-8"?>
<!-- Generator: Adobe Illustrator 24.1.1, SVG Export Plug-In . SVG Version: 6.00 Build 0)  -->
<svg version="1.1" id="Layer_1" xmlns="http://www.w3.org/2000/svg" xmlns:xlink="http://www.w3.org/1999/xlink" x="0px" y="0px"
	 viewBox="0 0 250 250" style="enable-background:new 0 0 250 250;" xml:space="preserve">
<style type="text/css">
	.st0{fill:#6995F7;}
	.st1{fill:#0080CF;}
	.st2{fill:#EDEDED;}
	.st3{fill:#28348A;}
	.st4{fill:#74CBF3;}
</style>
<circle class="st0" cx="125" cy="125" r="118"/>
<g>
	<g>
		<path class="st1" d="M134.16,210H67.01c-7.94,0-14.38-6.44-14.38-14.38V54.38c0-7.94,6.44-14.38,14.38-14.38h67.15
			c7.94,0,14.38,6.44,14.38,14.38v141.24C148.54,203.56,142.11,210,134.16,210z"/>
		<path class="st2" d="M138.08,195.46H63.09c-1.25,0-2.26-1.01-2.26-2.26V56.8c0-1.25,1.01-2.26,2.26-2.26h74.99
			c1.25,0,2.26,1.01,2.26,2.26V193.2C140.34,194.45,139.33,195.46,138.08,195.46z"/>
	</g>
	<g>
		<path class="st3" d="M196.27,161.05h-95.45c-9.44,0-17.1-7.66-17.1-17.1v-46.5c0-9.44,7.66-17.1,17.1-17.1h95.45
			c9.44,0,17.1,7.66,17.1,17.1v46.5C213.37,153.39,205.71,161.05,196.27,161.05z"/>
		<rect x="83.72" y="96.89" class="st4" width="129.65" height="18.52"/>
	</g>
</g>
</svg>
