<?xml version="1.0" encoding="utf-8"?>
<!-- Generator: Adobe Illustrator 24.1.1, SVG Export Plug-In . SVG Version: 6.00 Build 0)  -->
<svg version="1.1" id="Layer_1" xmlns="http://www.w3.org/2000/svg" xmlns:xlink="http://www.w3.org/1999/xlink" x="0px" y="0px"
	 viewBox="0 0 250 250" style="enable-background:new 0 0 250 250;" xml:space="preserve">
<style type="text/css">
	.st0{fill:#7E9FFC;}
	.st1{fill:#28348A;}
	.st2{fill:#74CBF3;}
</style>
<circle class="st0" cx="125" cy="125" r="118"/>
<g>
	<g>
		<g>
			<path class="st1" d="M82.23,68.83c0-7.18-0.01-14.36,0.01-21.54c0-0.84-0.02-1.29-1.12-1.28c-11.01,0.05-22.01,0.04-33.02,0.01
				c-0.89,0-1.12,0.24-1.12,1.13c0.03,14.36,0.03,28.72,0,43.09c0,0.89,0.23,1.14,1.12,1.12c3.41-0.05,6.81,0.02,10.22-0.05
				c1.03-0.02,1.3,0.26,1.28,1.29c-0.06,4.66-0.03,9.33-0.03,13.99c0,4.61,0,9.22,0,13.84c0,0.55-0.18,1.14,0.79,1.12
				c2.83-0.05,5.66-0.02,8.49-0.01c0.46,0,0.82-0.01,0.79-0.64c-0.05-1.41,0.37-3.05-0.22-4.14c-0.42-0.78-2.22-0.16-3.41-0.25
				c-0.05,0-0.11-0.01-0.16,0c-1.04,0.19-1.28-0.26-1.28-1.27c0.04-7.55,0.05-15.1,0-22.64c-0.01-1.04,0.28-1.29,1.29-1.28
				c5.03,0.05,10.06-0.01,15.1,0.05c1.04,0.01,1.28-0.29,1.27-1.3C82.21,82.98,82.23,75.9,82.23,68.83z M75.94,86.32
				c-7.55-0.05-15.1-0.05-22.64,0c-1.03,0.01-1.29-0.26-1.28-1.29c0.04-10.9,0.04-21.81,0-32.71c0-1.03,0.26-1.29,1.28-1.28
				c7.55,0.05,15.1,0.05,22.64,0c1.03-0.01,1.29,0.26,1.28,1.29c-0.05,5.5-0.02,11.01-0.02,16.51c0,5.4-0.03,10.8,0.03,16.2
				C77.24,86.06,76.97,86.32,75.94,86.32z"/>
		</g>
		<g>
			<g>
				<path class="st1" d="M57.12,61.12c0.01-1.62-0.58-3.67,0.2-4.72c0.74-0.99,2.93-0.27,4.48-0.29c3.09-0.05,6.18,0.02,9.27-0.04
					c0.88-0.02,1.18,0.22,1.12,1.12c-0.09,1.3-0.05,2.62-0.06,3.92c-0.54,0.54-1.24,0.5-1.92,0.51c-3.72,0.02-7.44,0.02-11.17,0
					C58.36,61.62,57.66,61.66,57.12,61.12z"/>
			</g>
			<g>
				<path class="st2" d="M57.12,61.12c5,0,10,0,15.01,0c0,1.68,0,3.37,0,5.05c-0.5,0.49-1.14,0.48-1.77,0.49
					c-3.82,0.02-7.65,0.02-11.47,0c-0.62,0-1.27,0.01-1.77-0.49C57.12,64.49,57.12,62.8,57.12,61.12z"/>
			</g>
			<g>
				<path class="st1" d="M57.12,66.17c5,0,10,0,15.01,0c0,1.67,0,3.34,0,5.01c-0.54,0.54-1.24,0.5-1.92,0.51
					c-3.72,0.02-7.44,0.02-11.17,0c-0.68,0-1.38,0.03-1.92-0.51C57.12,69.51,57.12,67.84,57.12,66.17z"/>
			</g>
			<g>
				<path class="st1" d="M72.12,76.23c-0.01,1.62,0.58,3.67-0.2,4.72c-0.74,0.99-2.93,0.27-4.48,0.29
					c-3.09,0.05-6.18-0.02-9.27,0.04c-0.88,0.02-1.18-0.22-1.12-1.12c0.09-1.3,0.05-2.62,0.06-3.92c0.54-0.54,1.24-0.5,1.92-0.51
					c3.72-0.02,7.44-0.02,11.17,0C70.88,75.73,71.58,75.7,72.12,76.23z"/>
			</g>
			<g>
				<path class="st2" d="M72.12,76.23c-5,0-10,0-15.01,0c0-1.68,0-3.37,0-5.05c5,0,10,0,15.01,0
					C72.12,72.87,72.12,74.55,72.12,76.23z"/>
			</g>
		</g>
	</g>
	<g>
		<g>
			<path class="st1" d="M82.26,159.95c0.01-1.01-0.23-1.31-1.27-1.3c-5.03,0.06-10.06,0-15.1,0.05c-1.01,0.01-1.3-0.23-1.29-1.28
				c0.05-7.55,0.05-15.1,0-22.64c-0.01-1.01,0.23-1.46,1.28-1.27c0.05,0.01,0.1,0,0.16,0c1.18-0.09,2.98,0.53,3.41-0.25
				c0.6-1.1,0.17-2.74,0.22-4.14c0.02-0.63-0.34-0.64-0.79-0.64c-2.83,0.01-5.66,0.04-8.49-0.01c-0.97-0.02-0.79,0.57-0.79,1.12
				c0,4.61,0,9.22,0,13.84c0,4.66-0.03,9.33,0.03,13.99c0.01,1.02-0.25,1.31-1.28,1.29c-3.41-0.07-6.81,0.01-10.22-0.05
				c-0.89-0.01-1.12,0.24-1.12,1.12c0.03,14.36,0.03,28.72,0,43.09c0,0.88,0.23,1.13,1.12,1.13c11.01-0.03,22.01-0.04,33.02,0.01
				c1.1,0,1.12-0.45,1.12-1.28c-0.02-7.18-0.01-14.36-0.01-21.54C82.23,174.1,82.21,167.02,82.26,159.95z M77.23,164.97
				c-0.05,5.4-0.03,10.8-0.03,16.2c0,5.5-0.03,11.01,0.02,16.51c0.01,1.02-0.26,1.29-1.28,1.29c-7.55-0.05-15.1-0.05-22.64,0
				c-1.03,0.01-1.29-0.26-1.28-1.28c0.04-10.9,0.04-21.81,0-32.71c0-1.02,0.26-1.29,1.28-1.29c7.55,0.05,15.1,0.05,22.64,0
				C76.97,163.68,77.24,163.94,77.23,164.97z"/>
		</g>
		<g>
			<g>
				<path class="st1" d="M57.12,188.88c0.01,1.62-0.58,3.67,0.2,4.72c0.74,0.99,2.93,0.27,4.48,0.29c3.09,0.05,6.18-0.02,9.27,0.04
					c0.88,0.02,1.18-0.22,1.12-1.12c-0.09-1.3-0.05-2.62-0.06-3.92c-0.54-0.54-1.24-0.5-1.92-0.51c-3.72-0.02-7.44-0.02-11.17,0
					C58.36,188.38,57.66,188.34,57.12,188.88z"/>
			</g>
			<g>
				<path class="st2" d="M57.12,188.88c5,0,10,0,15.01,0c0-1.68,0-3.37,0-5.05c-0.5-0.49-1.14-0.48-1.77-0.49
					c-3.82-0.02-7.65-0.02-11.47,0c-0.62,0-1.27-0.01-1.77,0.49C57.12,185.51,57.12,187.2,57.12,188.88z"/>
			</g>
			<g>
				<path class="st1" d="M57.12,183.83c5,0,10,0,15.01,0c0-1.67,0-3.34,0-5.01c-0.54-0.54-1.24-0.5-1.92-0.51
					c-3.72-0.02-7.44-0.02-11.17,0c-0.68,0-1.38-0.03-1.92,0.51C57.12,180.49,57.12,182.16,57.12,183.83z"/>
			</g>
			<g>
				<path class="st1" d="M72.12,173.77c-0.01-1.62,0.58-3.67-0.2-4.72c-0.74-0.99-2.93-0.27-4.48-0.29
					c-3.09-0.05-6.18,0.02-9.27-0.04c-0.88-0.02-1.18,0.22-1.12,1.12c0.09,1.3,0.05,2.62,0.06,3.92c0.54,0.54,1.24,0.5,1.92,0.51
					c3.72,0.02,7.44,0.02,11.17,0C70.88,174.27,71.58,174.3,72.12,173.77z"/>
			</g>
			<g>
				<path class="st2" d="M72.12,173.77c-5,0-10,0-15.01,0c0,1.68,0,3.37,0,5.05c5,0,10,0,15.01,0
					C72.12,177.13,72.12,175.45,72.12,173.77z"/>
			</g>
		</g>
	</g>
	<g>
		<g>
			<path class="st1" d="M167.74,90.05c-0.01,1.01,0.23,1.31,1.27,1.3c5.03-0.06,10.06,0,15.1-0.05c1.01-0.01,1.3,0.23,1.29,1.28
				c-0.05,7.55-0.05,15.1,0,22.64c0.01,1.01-0.23,1.46-1.28,1.27c-0.05-0.01-0.1,0-0.16,0c-1.18,0.09-2.98-0.53-3.41,0.25
				c-0.6,1.1-0.17,2.74-0.22,4.14c-0.02,0.63,0.34,0.64,0.79,0.64c2.83-0.01,5.66-0.04,8.49,0.01c0.97,0.02,0.79-0.57,0.79-1.12
				c0-4.61,0-9.22,0-13.84c0-4.66,0.03-9.33-0.03-13.99c-0.01-1.02,0.25-1.31,1.28-1.29c3.41,0.07,6.81-0.01,10.22,0.05
				c0.89,0.01,1.12-0.24,1.12-1.12c-0.03-14.36-0.03-28.72,0-43.09c0-0.88-0.23-1.13-1.12-1.13c-11.01,0.03-22.01,0.04-33.02-0.01
				c-1.1,0-1.12,0.45-1.12,1.28c0.02,7.18,0.01,14.36,0.01,21.54C167.77,75.9,167.79,82.98,167.74,90.05z M172.77,85.03
				c0.05-5.4,0.03-10.8,0.03-16.2c0-5.5,0.03-11.01-0.02-16.51c-0.01-1.02,0.26-1.29,1.28-1.29c7.55,0.05,15.1,0.05,22.64,0
				c1.03-0.01,1.29,0.26,1.28,1.28c-0.04,10.9-0.04,21.81,0,32.71c0,1.02-0.26,1.29-1.28,1.29c-7.55-0.05-15.1-0.05-22.64,0
				C173.03,86.32,172.76,86.06,172.77,85.03z"/>
		</g>
		<g>
			<g>
				<path class="st1" d="M192.88,61.12c-0.01-1.62,0.58-3.67-0.2-4.72c-0.74-0.99-2.93-0.27-4.48-0.29
					c-3.09-0.05-6.18,0.02-9.27-0.04c-0.88-0.02-1.18,0.22-1.12,1.12c0.09,1.3,0.05,2.62,0.06,3.92c0.54,0.54,1.24,0.5,1.92,0.51
					c3.72,0.02,7.44,0.02,11.17,0C191.64,61.62,192.34,61.66,192.88,61.12z"/>
			</g>
			<g>
				<path class="st2" d="M192.88,61.12c-5,0-10,0-15.01,0c0,1.68,0,3.37,0,5.05c0.5,0.49,1.14,0.48,1.77,0.49
					c3.82,0.02,7.65,0.02,11.47,0c0.62,0,1.27,0.01,1.77-0.49C192.88,64.49,192.88,62.8,192.88,61.12z"/>
			</g>
			<g>
				<path class="st1" d="M192.88,66.17c-5,0-10,0-15.01,0c0,1.67,0,3.34,0,5.01c0.54,0.54,1.24,0.5,1.92,0.51
					c3.72,0.02,7.44,0.02,11.17,0c0.68,0,1.38,0.03,1.92-0.51C192.88,69.51,192.88,67.84,192.88,66.17z"/>
			</g>
			<g>
				<path class="st1" d="M177.88,76.23c0.01,1.62-0.58,3.67,0.2,4.72c0.74,0.99,2.93,0.27,4.48,0.29c3.09,0.05,6.18-0.02,9.27,0.04
					c0.88,0.02,1.18-0.22,1.12-1.12c-0.09-1.3-0.05-2.62-0.06-3.92c-0.54-0.54-1.24-0.5-1.92-0.51c-3.72-0.02-7.44-0.02-11.17,0
					C179.12,75.73,178.42,75.7,177.88,76.23z"/>
			</g>
			<g>
				<path class="st2" d="M177.88,76.23c5,0,10,0,15.01,0c0-1.68,0-3.37,0-5.05c-5,0-10,0-15.01,0
					C177.88,72.87,177.88,74.55,177.88,76.23z"/>
			</g>
		</g>
	</g>
	<g>
		<g>
			<path class="st1" d="M167.77,181.17c0,7.18,0.01,14.36-0.01,21.54c0,0.84,0.02,1.29,1.12,1.28c11.01-0.05,22.01-0.04,33.02-0.01
				c0.89,0,1.12-0.24,1.12-1.13c-0.03-14.36-0.03-28.72,0-43.09c0-0.89-0.23-1.14-1.12-1.12c-3.41,0.05-6.81-0.02-10.22,0.05
				c-1.03,0.02-1.3-0.26-1.28-1.29c0.06-4.66,0.03-9.33,0.03-13.99c0-4.61,0-9.22,0-13.84c0-0.55,0.18-1.14-0.79-1.12
				c-2.83,0.05-5.66,0.02-8.49,0.01c-0.46,0-0.82,0.01-0.79,0.64c0.05,1.41-0.37,3.05,0.22,4.14c0.42,0.78,2.22,0.16,3.41,0.25
				c0.05,0,0.11,0.01,0.16,0c1.04-0.19,1.28,0.26,1.28,1.27c-0.04,7.55-0.05,15.1,0,22.64c0.01,1.04-0.28,1.29-1.29,1.28
				c-5.03-0.05-10.06,0.01-15.1-0.05c-1.04-0.01-1.28,0.29-1.27,1.3C167.79,167.02,167.77,174.1,167.77,181.17z M174.06,163.68
				c7.55,0.05,15.1,0.05,22.64,0c1.03-0.01,1.29,0.26,1.28,1.29c-0.04,10.9-0.04,21.81,0,32.71c0,1.03-0.26,1.29-1.28,1.28
				c-7.55-0.05-15.1-0.05-22.64,0c-1.03,0.01-1.29-0.26-1.28-1.29c0.05-5.5,0.02-11.01,0.02-16.51c0-5.4,0.03-10.8-0.03-16.2
				C172.76,163.94,173.03,163.68,174.06,163.68z"/>
		</g>
		<g>
			<g>
				<path class="st1" d="M192.88,188.88c-0.01,1.62,0.58,3.67-0.2,4.72c-0.74,0.99-2.93,0.27-4.48,0.29
					c-3.09,0.05-6.18-0.02-9.27,0.04c-0.88,0.02-1.18-0.22-1.12-1.12c0.09-1.3,0.05-2.62,0.06-3.92c0.54-0.54,1.24-0.5,1.92-0.51
					c3.72-0.02,7.44-0.02,11.17,0C191.64,188.38,192.34,188.34,192.88,188.88z"/>
			</g>
			<g>
				<path class="st2" d="M192.88,188.88c-5,0-10,0-15.01,0c0-1.68,0-3.37,0-5.05c0.5-0.49,1.14-0.48,1.77-0.49
					c3.82-0.02,7.65-0.02,11.47,0c0.62,0,1.27-0.01,1.77,0.49C192.88,185.51,192.88,187.2,192.88,188.88z"/>
			</g>
			<g>
				<path class="st1" d="M192.88,183.83c-5,0-10,0-15.01,0c0-1.67,0-3.34,0-5.01c0.54-0.54,1.24-0.5,1.92-0.51
					c3.72-0.02,7.44-0.02,11.17,0c0.68,0,1.38-0.03,1.92,0.51C192.88,180.49,192.88,182.16,192.88,183.83z"/>
			</g>
			<g>
				<path class="st1" d="M177.88,173.77c0.01-1.62-0.58-3.67,0.2-4.72c0.74-0.99,2.93-0.27,4.48-0.29c3.09-0.05,6.18,0.02,9.27-0.04
					c0.88-0.02,1.18,0.22,1.12,1.12c-0.09,1.3-0.05,2.62-0.06,3.92c-0.54,0.54-1.24,0.5-1.92,0.51c-3.72,0.02-7.44,0.02-11.17,0
					C179.12,174.27,178.42,174.3,177.88,173.77z"/>
			</g>
			<g>
				<path class="st2" d="M177.88,173.77c5,0,10,0,15.01,0c0,1.68,0,3.37,0,5.05c-5,0-10,0-15.01,0
					C177.88,177.13,177.88,175.45,177.88,173.77z"/>
			</g>
		</g>
	</g>
	<g>
		<path class="st1" d="M111.38,144.37h-1.43c-0.88,0-1.6-0.71-1.6-1.6v-37.17c0-0.88,0.71-1.6,1.6-1.6h1.43c0.88,0,1.6,0.71,1.6,1.6
			v37.17C112.98,143.66,112.27,144.37,111.38,144.37z"/>
	</g>
	<g>
		<path class="st2" d="M116.34,112.34v0.59c0,0.88-0.71,1.6-1.59,1.6h-8.58c-0.88,0-1.6-0.71-1.6-1.6v-0.59c0-0.88,0.71-1.6,1.6-1.6
			h8.58C115.63,110.74,116.34,111.46,116.34,112.34z"/>
	</g>
	<g>
		<path class="st1" d="M138.87,144.37h-1.43c-0.88,0-1.6-0.71-1.6-1.6v-37.17c0-0.88,0.71-1.6,1.6-1.6h1.43c0.88,0,1.6,0.71,1.6,1.6
			v37.17C140.47,143.66,139.75,144.37,138.87,144.37z"/>
	</g>
	<g>
		<path class="st2" d="M143.83,129.32v0.59c0,0.88-0.71,1.6-1.6,1.6h-8.58c-0.88,0-1.6-0.71-1.6-1.6v-0.59c0-0.88,0.71-1.6,1.6-1.6
			h8.58C143.11,127.73,143.83,128.44,143.83,129.32z"/>
	</g>
	<g>
		<path class="st2" d="M175.34,120.15c-0.01-1.78,0.55-3.93-0.26-5.23c-0.86-1.38-3.24-1.4-4.96-1.96
			c-0.94-0.31-1.48-0.77-1.73-1.76c-0.53-2.14-1.11-4.37-2.35-6.13c-2.09-2.95-1.62-5.53,0.26-8.22c0.35-0.51,0.56-1.11,0.86-1.73
			c-0.17-0.21-0.3-0.43-0.48-0.61c-4.04-4.04-8.08-8.07-12.1-12.13c-0.47-0.47-0.85-0.43-1.38-0.16c-1.39,0.73-2.83,1.38-4.2,2.14
			c-0.81,0.45-1.46,0.51-2.3-0.02c-1.64-1.03-3.39-2.05-5.26-2.41c-3.98-0.78-6.14-3.03-6.65-6.99c-0.14-1.06-0.78-1.26-1.76-1.25
			c-4.45,0.05-8.91,0.02-13.36,0.02c-4.04,0-4.15-0.03-5.24,3.77c-0.58,2.01-1.44,3.28-3.64,3.61c-1.21,0.18-2.37,0.82-3.51,1.33
			c-1.71,0.77-3.41,2.27-5.09,2.23c-1.76-0.04-3.5-1.5-5.21-2.39c-0.65-0.34-1.08-0.34-1.64,0.22c-3.94,3.99-7.91,7.95-11.89,11.9
			c-0.5,0.49-0.56,0.89-0.24,1.5c0.79,1.48,1.48,3.01,2.27,4.48c0.33,0.62,0.31,1.1-0.02,1.74c-0.86,1.62-1.67,3.26-2.38,4.95
			c-0.75,1.77-0.9,4.07-2.14,5.29c-1.25,1.22-3.52,1.4-5.36,2.01c-0.62,0.21-0.91,0.52-0.91,1.24c0.03,5.61,0.03,11.21,0,16.82
			c0,0.78,0.3,1.12,0.99,1.34c1.4,0.43,2.77,0.96,4.18,1.34c1.02,0.28,1.54,0.82,1.83,1.86c0.45,1.61,1.04,3.18,1.69,4.72
			c0.75,1.77,2.29,3.5,2.27,5.24c-0.02,1.75-1.49,3.5-2.39,5.21c-0.35,0.67-0.28,1.09,0.26,1.62c3.95,3.9,7.88,7.83,11.78,11.79
			c0.6,0.61,1.06,0.61,1.76,0.23c1.43-0.77,2.92-1.43,4.34-2.2c0.64-0.34,1.13-0.31,1.73,0.06c1.65,1.03,3.46,1.73,5.23,2.51
			c1.67,0.74,3.91,0.66,5.01,1.98c1.1,1.31,1.33,3.36,1.88,5.1c0.25,0.79,0.58,1.19,1.51,1.18c5.5-0.05,11-0.05,16.51,0
			c0.94,0.01,1.27-0.39,1.51-1.18c0.42-1.4,0.97-2.77,1.35-4.18c0.25-0.93,0.79-1.33,1.68-1.61c1.84-0.57,3.65-1.28,5.47-1.94
			c1.66-0.6,3.09-2.28,4.77-2.05c1.72,0.24,3.31,1.48,4.93,2.33c0.69,0.36,1.16,0.39,1.76-0.23c3.9-3.96,7.83-7.88,11.78-11.79
			c0.54-0.54,0.61-0.97,0.26-1.63c-0.75-1.38-1.38-2.82-2.14-4.2c-0.42-0.77-0.44-1.38,0.04-2.16c1.03-1.65,2.07-3.39,2.41-5.26
			c0.74-4.02,3.04-6.13,6.97-6.68c1.03-0.14,1.31-0.72,1.29-1.73C175.31,128.11,175.35,124.13,175.34,120.15z M124.98,159.27
			c-19.44-0.02-35.24-15.88-35.19-35.34c0.04-19.37,15.87-35.13,35.26-35.11c19.45,0.01,35.24,15.88,35.19,35.34
			C160.19,143.51,144.36,159.28,124.98,159.27z"/>
		<path class="st1" d="M133.29,176.47c-0.02,0-0.03,0-0.05,0c-5.44-0.05-10.98-0.05-16.47,0c-1.77,0.02-2.96-0.87-3.52-2.63
			c-0.17-0.53-0.3-1.07-0.44-1.59c-0.28-1.09-0.56-2.21-1.06-2.8c-0.26-0.31-1.15-0.52-1.93-0.7c-0.73-0.17-1.55-0.36-2.34-0.71
			c-0.36-0.16-0.72-0.32-1.09-0.47c-1.4-0.6-2.85-1.23-4.24-2.07c-0.71,0.37-1.39,0.71-2.05,1.03c-0.73,0.36-1.42,0.7-2.1,1.07
			c-1.96,1.07-3.39,0.26-4.24-0.6c-3.59-3.64-7.44-7.49-11.76-11.77c-1.19-1.18-1.42-2.59-0.64-4.07c0.28-0.54,0.6-1.05,0.9-1.55
			c0.61-1,1.24-2.03,1.25-2.71c0.01-0.57-0.52-1.48-1.03-2.36c-0.38-0.65-0.77-1.32-1.07-2.05c-0.77-1.82-1.35-3.45-1.78-4.97
			c-0.07-0.24-0.12-0.31-0.13-0.32l0,0c0,0-0.07-0.04-0.24-0.09c-0.91-0.25-1.78-0.54-2.63-0.83c-0.54-0.18-1.08-0.37-1.62-0.53
			c-1.59-0.49-2.46-1.68-2.45-3.34c0.03-5.21,0.03-10.7,0-16.8c-0.01-1.58,0.82-2.72,2.33-3.22c0.62-0.2,1.25-0.36,1.85-0.51
			c1.1-0.27,2.23-0.55,2.71-1.01c0.41-0.4,0.69-1.41,0.96-2.38c0.2-0.73,0.41-1.48,0.72-2.22c0.65-1.54,1.42-3.14,2.42-5.03
			c-0.41-0.77-0.77-1.51-1.13-2.23c-0.35-0.71-0.7-1.43-1.08-2.13c-0.75-1.41-0.54-2.82,0.61-3.95c4.36-4.32,8.24-8.2,11.88-11.88
			c0.81-0.82,2.17-1.59,4.07-0.6c0.54,0.28,1.07,0.6,1.57,0.91c1,0.61,2.02,1.23,2.73,1.25c0.55,0.03,1.48-0.54,2.31-1.03
			c0.6-0.35,1.22-0.72,1.89-1.02c0.22-0.1,0.43-0.2,0.65-0.3c1-0.47,2.13-1,3.4-1.19c0.98-0.15,1.46-0.39,1.95-2.13
			c1.39-4.86,2.43-5.28,7.13-5.28c0,0,0,0,0.01,0l3.66,0c3.21,0,6.53,0.01,9.78-0.02c3.02-0.05,3.69,1.91,3.84,3.07
			c0.4,3.05,1.89,4.61,4.99,5.21c2.26,0.44,4.27,1.62,5.97,2.69c0.02,0.01,0.03,0.02,0.04,0.03c0.04-0.02,0.08-0.04,0.14-0.07
			c0.85-0.47,1.71-0.9,2.55-1.31c0.57-0.28,1.13-0.56,1.69-0.85c1.88-0.98,3.2-0.09,3.82,0.54c2.74,2.77,5.49,5.52,8.25,8.27
			l3.85,3.86c0.23,0.24,0.4,0.46,0.54,0.65l0.91,1.18l-0.57,1.17c-0.09,0.17-0.16,0.35-0.24,0.52c-0.2,0.46-0.44,0.98-0.79,1.49
			c-1.59,2.27-1.66,3.85-0.27,5.83c1.49,2.11,2.15,4.72,2.67,6.82c0.03,0.11,0.05,0.16,0.06,0.17l0,0c0.01,0,0.09,0.05,0.29,0.12
			c0.39,0.13,0.88,0.23,1.39,0.34c1.61,0.34,3.61,0.76,4.69,2.5c0.94,1.5,0.79,3.3,0.66,4.88c-0.04,0.52-0.08,1.01-0.08,1.44l0,0
			c0.01,1.45,0,2.91,0,4.36c0,2.48-0.01,5.05,0.03,7.56c0.04,3.06-2.14,3.69-3.09,3.82c-3.09,0.43-4.65,1.92-5.21,4.99
			c-0.4,2.18-1.5,4.07-2.69,5.98c0,0-0.01,0.01-0.01,0.01c0.01,0.01,0.01,0.02,0.02,0.04c0.42,0.76,0.79,1.52,1.16,2.26
			c0.33,0.68,0.65,1.32,0.99,1.95c0.81,1.48,0.59,2.9-0.62,4.1c-4.35,4.29-8.19,8.14-11.76,11.77c-0.84,0.85-2.25,1.64-4.22,0.61
			c-0.47-0.25-0.94-0.53-1.41-0.81c-1.03-0.61-2-1.19-2.84-1.3c-0.3-0.04-1.05,0.44-1.59,0.78c-0.64,0.41-1.36,0.87-2.19,1.17
			c-0.5,0.18-1,0.36-1.5,0.55c-1.31,0.49-2.67,0.99-4.06,1.42c-0.14,0.04-0.23,0.08-0.27,0.1c-0.01,0.02-0.01,0.04-0.02,0.06
			c-0.23,0.86-0.52,1.68-0.79,2.48c-0.2,0.58-0.4,1.16-0.58,1.75C136.12,176,134.53,176.47,133.29,176.47z M124.92,172.27
			c2.67,0,5.32,0.01,7.95,0.03c0.17-0.54,0.35-1.07,0.54-1.61c0.26-0.77,0.51-1.49,0.71-2.21c0.62-2.29,2.46-2.86,3.07-3.05
			c1.28-0.4,2.53-0.86,3.85-1.35c0.51-0.19,1.02-0.38,1.53-0.56c0.4-0.14,0.87-0.44,1.37-0.76c1.15-0.73,2.58-1.64,4.4-1.4
			c1.67,0.23,3.12,1.09,4.4,1.85c0.29,0.17,0.58,0.35,0.87,0.51c3.41-3.45,7.04-7.08,11.1-11.1c-0.29-0.55-0.55-1.09-0.81-1.61
			c-0.36-0.73-0.7-1.42-1.07-2.09c-0.8-1.44-0.76-2.88,0.1-4.26c0.97-1.56,1.86-3.07,2.13-4.53c0.86-4.7,3.63-7.48,8.23-8.28
			c-0.03-2.46-0.03-4.94-0.02-7.35c0-1.45,0-2.89,0-4.34l0,0c0-0.61,0.05-1.21,0.1-1.8c0.06-0.75,0.17-2-0.04-2.33
			c-0.21-0.25-1.39-0.49-2.02-0.63c-0.6-0.13-1.22-0.26-1.82-0.45c-1.68-0.55-2.69-1.61-3.1-3.23c-0.46-1.85-0.99-3.95-2.03-5.43
			c-2.43-3.43-2.34-6.91,0.26-10.62c0.04-0.05,0.07-0.11,0.11-0.18l-3.35-3.35c-2.59-2.59-5.18-5.18-7.75-7.77
			c-0.42,0.21-0.82,0.41-1.22,0.61c-0.83,0.41-1.61,0.79-2.37,1.22c-1.54,0.85-2.98,0.83-4.42-0.08c-1.39-0.87-2.99-1.83-4.55-2.13
			c-4.7-0.92-7.47-3.67-8.23-8.2c-3.2,0.03-6.45,0.03-9.59,0.02l-3.65,0c-1.02,0.01-2.04,0-2.41,0.09
			c-0.21,0.36-0.53,1.48-0.73,2.18c-0.6,2.09-1.74,4.55-5.33,5.09c-0.67,0.1-1.44,0.46-2.25,0.84c-0.24,0.11-0.48,0.23-0.72,0.33
			c-0.46,0.2-0.95,0.5-1.47,0.8c-1.31,0.77-2.81,1.64-4.51,1.61c-1.83-0.04-3.41-1-4.81-1.85c-0.31-0.19-0.61-0.37-0.91-0.54
			c-3.43,3.47-7.06,7.1-11.1,11.1c0.29,0.57,0.57,1.13,0.85,1.7c0.37,0.75,0.74,1.5,1.13,2.24c0.66,1.23,0.65,2.43-0.02,3.7
			c-0.96,1.82-1.69,3.33-2.3,4.78c-0.21,0.49-0.37,1.09-0.54,1.72c-0.4,1.44-0.85,3.07-2.06,4.26c-1.29,1.26-3.06,1.69-4.62,2.08
			c-0.35,0.09-0.69,0.17-1.01,0.26c0.03,5.68,0.03,10.84,0,15.74c0.43,0.14,0.84,0.28,1.25,0.42c0.82,0.28,1.6,0.54,2.38,0.75
			c1.72,0.47,2.8,1.55,3.29,3.31c0.38,1.35,0.9,2.82,1.6,4.47c0.21,0.49,0.51,1.02,0.84,1.58c0.76,1.3,1.61,2.78,1.6,4.49
			c-0.02,1.84-1,3.44-1.86,4.85c-0.18,0.29-0.35,0.58-0.51,0.85c4.08,4.03,7.7,7.66,11.09,11.1c0.63-0.33,1.26-0.64,1.88-0.94
			c0.73-0.36,1.42-0.69,2.09-1.06c1.28-0.7,2.57-0.65,3.82,0.13c1.18,0.73,2.48,1.29,3.85,1.89c0.38,0.16,0.75,0.32,1.12,0.49
			c0.43,0.19,1,0.32,1.6,0.47c1.34,0.32,3.01,0.71,4.16,2.08c1.1,1.32,1.53,2.98,1.9,4.45c0.1,0.38,0.19,0.74,0.29,1.08
			C119.74,172.28,122.34,172.27,124.92,172.27z M138.18,169.46L138.18,169.46L138.18,169.46z M166.39,146.98
			C166.39,146.98,166.39,146.98,166.39,146.98C166.39,146.98,166.39,146.98,166.39,146.98z M166.4,146.76L166.4,146.76L166.4,146.76
			z M125.01,161.35c-0.01,0-0.02,0-0.03,0l0,0c-9.95-0.01-19.31-3.91-26.36-10.98c-7.06-7.08-10.93-16.47-10.91-26.45
			c0.05-20.51,16.78-37.19,37.31-37.19c0.01,0,0.02,0,0.03,0c9.96,0.01,19.32,3.91,26.37,10.98c7.06,7.08,10.93,16.47,10.9,26.45
			C162.27,144.67,145.53,161.35,125.01,161.35z M124.98,157.19c0.01,0,0.02,0,0.03,0c18.24,0,33.11-14.82,33.15-33.04
			c0.02-8.86-3.42-17.21-9.69-23.5c-6.26-6.28-14.58-9.75-23.43-9.75c-0.01,0-0.02,0-0.03,0c-18.24,0-33.11,14.82-33.15,33.04
			c-0.02,8.86,3.42,17.21,9.7,23.5C107.83,153.71,116.14,157.18,124.98,157.19L124.98,157.19z"/>
	</g>
</g>
</svg>
