<?xml version="1.0" encoding="utf-8"?>
<!-- Generator: Adobe Illustrator 24.1.1, SVG Export Plug-In . SVG Version: 6.00 Build 0)  -->
<svg version="1.1" id="Layer_1" xmlns="http://www.w3.org/2000/svg" xmlns:xlink="http://www.w3.org/1999/xlink" x="0px" y="0px"
	 viewBox="0 0 250 250" style="enable-background:new 0 0 250 250;" xml:space="preserve">
<style type="text/css">
	.st0{fill:#7E9FFC;}
	.st1{fill:#74CBF3;}
	.st2{fill:#28348A;}
	.st3{fill:#0679B2;}
	.st4{fill:#0080CF;}
	.st5{fill:#FFFFFF;}
</style>
<circle class="st0" cx="125" cy="125" r="118"/>
<g>
	<g>
		<path class="st1" d="M202.19,190.23H43.81c-9.4,0-17.01-7.61-17.01-17.01V76.78c0-9.4,7.61-17.01,17.01-17.01h158.38
			c9.4,0,17.01,7.61,17.01,17.01v96.44C219.2,182.62,211.59,190.23,202.19,190.23z"/>
		<path class="st2" d="M57.77,190.23H43.84c-9.41,0-17.04-7.63-17.04-17.04V88.4h30.97V190.23z"/>
		<rect x="26.8" y="88.4" class="st3" width="30.97" height="17.37"/>
	</g>
	<path class="st4" d="M219.2,88.4H26.8V76.78c0-9.4,7.61-17.01,17.01-17.01h158.38c9.4,0,17.01,7.61,17.01,17.01V88.4z"/>
	<path class="st2" d="M58.24,78.07H42.76c-2.07,0-3.76-1.68-3.76-3.76l0,0c0-2.07,1.68-3.76,3.76-3.76h15.48
		c2.07,0,3.76,1.68,3.76,3.76l0,0C61.99,76.39,60.32,78.07,58.24,78.07z"/>
	<path class="st5" d="M32.43,105.81L32.43,105.81c0-1.19,0.98-2.16,2.16-2.16h167.9c1.19,0,2.16,0.98,2.16,2.16l0,0
		c0,1.19-0.98,2.16-2.16,2.16H34.59C33.4,107.98,32.43,107.01,32.43,105.81z"/>
	<path class="st5" d="M32.43,126.94L32.43,126.94c0-1.19,0.98-2.16,2.16-2.16h167.9c1.19,0,2.16,0.98,2.16,2.16l0,0
		c0,1.19-0.98,2.16-2.16,2.16H34.59C33.4,129.1,32.43,128.12,32.43,126.94z"/>
	<path class="st5" d="M32.43,148.05L32.43,148.05c0-1.19,0.98-2.16,2.16-2.16h167.9c1.19,0,2.16,0.98,2.16,2.16l0,0
		c0,1.19-0.98,2.16-2.16,2.16H34.59C33.4,150.21,32.43,149.24,32.43,148.05z"/>
	<path class="st5" d="M32.43,169.17L32.43,169.17c0-1.19,0.98-2.16,2.16-2.16h167.9c1.19,0,2.16,0.98,2.16,2.16l0,0
		c0,1.19-0.98,2.16-2.16,2.16H34.59C33.4,171.34,32.43,170.36,32.43,169.17z"/>
	<path class="st5" d="M57.16,186.01L57.16,186.01c-1.45,0-2.65-1.19-2.65-2.64V91.04c0-1.45,1.19-2.65,2.65-2.65l0,0
		c1.45,0,2.65,1.19,2.65,2.65v92.33C59.81,184.82,58.61,186.01,57.16,186.01z"/>
	<path class="st5" d="M88.61,186.01L88.61,186.01c-1.45,0-2.65-1.19-2.65-2.64V91.04c0-1.45,1.19-2.65,2.65-2.65l0,0
		c1.45,0,2.65,1.19,2.65,2.65v92.33C91.24,184.82,90.06,186.01,88.61,186.01z"/>
	<path class="st5" d="M120.05,186.01L120.05,186.01c-1.45,0-2.65-1.19-2.65-2.64V91.04c0-1.45,1.19-2.65,2.65-2.65l0,0
		c1.45,0,2.65,1.19,2.65,2.65v92.33C122.69,184.82,121.5,186.01,120.05,186.01z"/>
	<path class="st5" d="M151.48,186.01L151.48,186.01c-1.45,0-2.65-1.19-2.65-2.64V91.04c0-1.45,1.19-2.65,2.65-2.65l0,0
		c1.45,0,2.65,1.19,2.65,2.65v92.33C154.13,184.82,152.94,186.01,151.48,186.01z"/>
	<path class="st5" d="M182.93,186.01L182.93,186.01c-1.45,0-2.65-1.19-2.65-2.64V91.04c0-1.45,1.19-2.65,2.64-2.65l0,0
		c1.45,0,2.64,1.19,2.64,2.65v92.33C185.57,184.82,184.38,186.01,182.93,186.01z"/>
</g>
</svg>
