<?xml version="1.0" encoding="utf-8"?>
<!-- Generator: Adobe Illustrator 24.1.1, SVG Export Plug-In . SVG Version: 6.00 Build 0)  -->
<svg version="1.1" id="Layer_1" xmlns="http://www.w3.org/2000/svg" xmlns:xlink="http://www.w3.org/1999/xlink" x="0px" y="0px"
	 viewBox="0 0 250 250" style="enable-background:new 0 0 250 250;" xml:space="preserve">
<style type="text/css">
	.st0{fill:#6995F7;}
	.st1{fill:#74CBF3;}
	.st2{fill:#0080CF;}
	.st3{fill:#28348A;}
</style>
<circle class="st0" cx="125" cy="125" r="118"/>
<g>
	<path class="st1" d="M137.3,84.86c-0.05-0.08-0.06-0.15-0.02-0.24c0.42-0.63,0.44-1.36,0.44-2.09c0-10.07,0.02-20.15-0.02-30.22
		c-0.01-3.13-1.19-4.54-4.22-5.29c-4.94,0-9.88,0-14.82,0V47H88.96h-1.24H59.27v0.05c-4.84,0-9.68,0-14.52,0
		c-2.13,1.1-3.69,2.58-3.69,5.23c0.01,32.14,0,64.27,0.02,96.4c0,3.14,2.1,5.17,5.29,5.21c2.35,0.03,4.69,0.09,7.03-0.02
		c1.37-0.07,1.79,0.3,1.77,1.72c-0.08,6.58-0.02,13.17-0.05,19.74c-0.01,2.36,0.95,4.1,3.12,5.07c1.93,0.86,4.02,0.37,5.78-1.38
		c7.11-7.09,14.21-14.2,21.31-21.3c1.3-1.3,2.64-2.57,3.95-3.85c5.09,0.02,10.19,0.04,15.3,0.05c3.91,0.02,7.82,0.07,11.72,0.11
		c0.73,0.4,1.52,0.34,2.3,0.34c4.26,0.01,8.52,0.02,12.78,0c4.22-0.02,6.35-2.08,6.35-6.24c0.02-20.33,0.01-40.67,0-61.01
		C137.73,86.34,137.79,85.55,137.3,84.86z"/>
	<path class="st2" d="M91.28,125.28c-1.51,0-3.15-0.03-4.9-0.09v-0.09c-0.76-0.02-1.56-0.08-2.36-0.12c0.1-4.6,0.2-10.41,0.3-17.44
		c0.34,0,0.68,0,1.02,0.01c0.35,0,0.7,0,1.05,0.01v0c2.32,0.01,4.6,0.04,6.82,0.07l5.2,0.11c3.48,0,5.96-0.48,7.48-1.46
		c1.57-1,2.38-2.7,2.38-5.09c0-1.88-0.57-4.02-1.71-6.41c-3.18,0.98-9.23,1.46-18.16,1.46c-0.72,0-1.39,0-2.02-0.01v-0.02
		c-0.76-0.02-1.38-0.04-1.86-0.06l0.3-15.23c0.54-0.02,1.06-0.03,1.56-0.05V80.8c3.66-0.1,5.76-0.15,6.29-0.15
		c7.41,0,12.83,0.74,16.26,2.22c1.92-3.29,2.88-6.19,2.88-8.67c0-2.22-0.72-3.8-2.16-4.74c-1.4-0.94-3.71-1.41-6.92-1.41
		c-1.77,0-5.5,0.18-11.17,0.56c-2.76,0.18-5.31,0.31-7.64,0.4v0.09c-1.31,0.04-2.54,0.06-3.68,0.06c-2.39,0-7.09-0.1-14.12-0.3
		c1.21,5.78,1.82,16.07,1.82,30.86c0,7.63-0.18,15.11-0.56,22.4c-0.38,6.92-0.58,10.37-0.6,10.37c0,1.87,0.38,3.17,1.16,3.91
		c0.74,0.7,2.08,1.05,4.03,1.05c2.02,0,4.7-0.04,8.07-0.1c2.83-0.05,4.95-0.08,6.35-0.08v0c1.3,0.02,2.93,0.05,4.9,0.09
		c3.01,0.06,5.33,0.1,6.91,0.1c4.36,0,7.39-0.4,9.09-1.21c1.96-0.94,2.93-2.68,2.93-5.25c0-2.14-0.87-4.9-2.61-8.27
		C103.88,124.43,98.44,125.28,91.28,125.28z"/>
	<path class="st2" d="M206.35,75.63c-22.19-0.02-44.39-0.01-66.58,0v-0.1h-17.74c-3.28,0-5.94,2.66-5.94,5.94l0.5,64.17
		c-0.06,0-0.12,0-0.18,0c0,10.68-0.01,21.36,0.02,32.04c0,0.92,0.16,1.71,0.43,2.4l0,0.13l0.03-0.04c0.6,1.44,1.78,2.38,3.58,2.82
		c0,0,0,0,0,0c0,0-0.01,0-0.01,0.01c0.67,0.43,1.41,0.24,2.12,0.24c13.45,0.01,26.9,0.02,40.35-0.02c1.08,0,1.86,0.32,2.62,1.09
		c7.99,8.03,16.01,16.03,24.01,24.05c1.66,1.67,3.58,2.19,5.79,1.35c2.08-0.79,3.11-2.51,3.11-5.02c0-6.47,0.05-12.94-0.04-19.42
		c-0.02-1.55,0.26-2.2,1.96-2.05c1.88,0.17,3.8-0.06,5.69,0.06c3.01,0.2,5.14-0.99,6.44-3.7c0-33.25,0-66.52,0.01-99.76
		C211.49,76.79,209.87,75.63,206.35,75.63z"/>
	<path class="st3" d="M185.45,146.81c-3.01-12.07-6.02-24.13-9.05-36.2c-1.76-7.03-5.13-9.95-12.12-10.52l0.01,0.13
		c-5.29-0.02-9.97,3.47-11.31,8.7c-3.22,12.62-6.34,25.28-9.47,37.92c-0.71,2.89,0.93,5.62,3.59,6.23c2.77,0.63,5.35-0.96,6.12-3.84
		c0.5-1.88,0.97-3.77,1.39-5.68c0.19-0.85,0.59-1.16,1.48-1.15c2.73,0.05,5.45-0.01,8.19-0.02c0,0,0,0.01,0.01,0.01l-0.01,0.12
		c2.85-0.02,5.69,0.01,8.54-0.08c0.99-0.03,1.25,0.5,1.43,1.23c0.47,1.89,0.92,3.77,1.42,5.65c0.79,2.93,3.42,4.49,6.27,3.77
		C184.58,152.42,186.15,149.64,185.45,146.81z M170.32,132.36c-2-0.04-4.01-0.03-6.01-0.04c0,0,0-0.01-0.01-0.01
		c-2.27-0.09-4.57,0.45-6.8-0.31c1.61-6.42,3.22-12.84,4.83-19.26c0.26-1.03,0.46-2.1,1.63-2.54c0.12,0.03,0.24,0.06,0.35,0.09
		c1.2-0.11,1.72,0.68,1.96,1.65c1.63,6.45,3.2,12.91,4.85,19.35C171.35,132.17,171.14,132.38,170.32,132.36z"/>
</g>
</svg>
