<?xml version="1.0" encoding="utf-8"?>
<!-- Generator: Adobe Illustrator 24.1.1, SVG Export Plug-In . SVG Version: 6.00 Build 0)  -->
<svg version="1.1" id="Layer_1" xmlns="http://www.w3.org/2000/svg" xmlns:xlink="http://www.w3.org/1999/xlink" x="0px" y="0px"
	 viewBox="0 0 250 250" style="enable-background:new 0 0 250 250;" xml:space="preserve">
<style type="text/css">
	.st0{fill:#7E9FFC;}
	.st1{fill:#28348A;}
	.st2{fill:#FFFFFF;}
	.st3{fill:#0080CF;}
	.st4{fill:#DEE3FC;}
	.st5{fill:#74CBF3;}
	.st6{fill:#3052CE;}
	.st7{fill:none;stroke:#74CBF3;stroke-miterlimit:10;}
	.st8{fill:none;stroke:#94BBFF;stroke-linecap:round;stroke-linejoin:round;stroke-miterlimit:10;stroke-dasharray:2.837;}
	.st9{fill:#F0F4FF;}
</style>
<circle class="st0" cx="125" cy="125" r="118"/>
<g>
	<g>
		<path class="st1" d="M159.65,233.18h-69.3c-11.79,0-21.35-9.56-21.35-21.35V38.17c0-11.79,9.56-21.35,21.35-21.35h69.3
			c11.79,0,21.35,9.56,21.35,21.35v173.66C181,223.62,171.44,233.18,159.65,233.18z"/>
		<path class="st2" d="M160.2,230.11H89.8c-10.33,0-18.7-8.37-18.7-18.7V37.41c0-10.33,8.37-18.7,18.7-18.7h70.41
			c10.33,0,18.7,8.37,18.7,18.7v173.99C178.9,221.73,170.53,230.11,160.2,230.11z"/>
		<path class="st3" d="M174.18,30.11v187.64c0,4.4-3.57,7.97-7.97,7.97H83.78c-4.4,0-7.97-3.57-7.97-7.97V30.11
			c0-4.4,3.57-7.97,7.97-7.97h13.75c0.76,0,1.46,0.43,1.8,1.11l1.46,2.91c0.67,1.34,2.04,2.19,3.53,2.19h41.35
			c1.49,0,2.87-0.84,3.53-2.19l1.46-2.91c0.34-0.68,1.04-1.11,1.8-1.11h13.75C170.62,22.14,174.18,25.71,174.18,30.11z"/>
		<path class="st4" d="M142.35,24.95h-33.31c-0.77,0-1.4-0.63-1.4-1.4l0,0c0-0.77,0.63-1.4,1.4-1.4h33.31c0.77,0,1.4,0.63,1.4,1.4
			l0,0C143.76,24.32,143.13,24.95,142.35,24.95z"/>
	</g>
	<path class="st1" d="M166.37,156.63v32.05c0,2.5-2.03,4.52-4.52,4.52H86.23c-2.5,0-4.52-2.02-4.52-4.52v-32.05
		c0-2.5,2.03-4.52,4.52-4.52h75.61C164.34,152.11,166.37,154.13,166.37,156.63z"/>
	<g>
		<path class="st5" d="M137.36,165.06h-19.62c-0.53,0-0.97-0.43-0.97-0.97l0,0c0-0.53,0.43-0.97,0.97-0.97h19.62
			c0.53,0,0.97,0.43,0.97,0.97l0,0C138.32,164.62,137.89,165.06,137.36,165.06z"/>
		<path class="st5" d="M128.42,168.91h-10.68c-0.53,0-0.97-0.43-0.97-0.97l0,0c0-0.53,0.43-0.97,0.97-0.97h10.68
			c0.53,0,0.97,0.43,0.97,0.97l0,0C129.38,168.48,128.95,168.91,128.42,168.91z"/>
		<path class="st5" d="M161.24,168.91h-28.89c-0.53,0-0.97-0.43-0.97-0.97l0,0c0-0.53,0.43-0.97,0.97-0.97h28.89
			c0.53,0,0.97,0.43,0.97,0.97l0,0C162.21,168.48,161.77,168.91,161.24,168.91z"/>
		<path class="st5" d="M134.26,172.77h-16.52c-0.53,0-0.97-0.43-0.97-0.97l0,0c0-0.53,0.43-0.97,0.97-0.97h16.52
			c0.53,0,0.97,0.43,0.97,0.97l0,0C135.23,172.34,134.79,172.77,134.26,172.77z"/>
		<path class="st5" d="M148.28,172.77H137.9c-0.53,0-0.97-0.43-0.97-0.97l0,0c0-0.53,0.43-0.97,0.97-0.97h10.39
			c0.53,0,0.97,0.43,0.97,0.97l0,0C149.25,172.34,148.82,172.77,148.28,172.77z"/>
		<path class="st5" d="M161.24,172.77h-9.56c-0.53,0-0.97-0.43-0.97-0.97l0,0c0-0.53,0.43-0.97,0.97-0.97h9.56
			c0.53,0,0.97,0.43,0.97,0.97l0,0C162.21,172.34,161.77,172.77,161.24,172.77z"/>
		<path class="st5" d="M161.24,176.62h-43.5c-0.53,0-0.97-0.43-0.97-0.97l0,0c0-0.53,0.43-0.97,0.97-0.97h43.5
			c0.53,0,0.97,0.43,0.97,0.97l0,0C162.21,176.19,161.77,176.62,161.24,176.62z"/>
		<path class="st5" d="M141.68,180.48h-23.94c-0.53,0-0.97-0.43-0.97-0.97l0,0c0-0.53,0.43-0.97,0.97-0.97h23.94
			c0.53,0,0.97,0.43,0.97,0.97l0,0C142.65,180.05,142.21,180.48,141.68,180.48z"/>
		<path class="st5" d="M161.24,180.48h-15.7c-0.53,0-0.97-0.43-0.97-0.97l0,0c0-0.53,0.43-0.97,0.97-0.97h15.7
			c0.53,0,0.97,0.43,0.97,0.97l0,0C162.21,180.05,161.77,180.48,161.24,180.48z"/>
		<path class="st5" d="M131.81,184.34h-14.07c-0.53,0-0.97-0.43-0.97-0.97l0,0c0-0.53,0.43-0.97,0.97-0.97h14.07
			c0.53,0,0.97,0.43,0.97,0.97l0,0C132.77,183.91,132.34,184.34,131.81,184.34z"/>
		<path class="st5" d="M149.68,184.34h-14.07c-0.53,0-0.97-0.43-0.97-0.97l0,0c0-0.53,0.43-0.97,0.97-0.97h14.07
			c0.53,0,0.97,0.43,0.97,0.97l0,0C150.65,183.91,150.21,184.34,149.68,184.34z"/>
		<path class="st5" d="M161.24,184.34h-8.16c-0.53,0-0.97-0.43-0.97-0.97l0,0c0-0.53,0.43-0.97,0.97-0.97h8.16
			c0.53,0,0.97,0.43,0.97,0.97l0,0C162.21,183.91,161.77,184.34,161.24,184.34z"/>
		<path class="st5" d="M137.36,188.19h-19.62c-0.53,0-0.97-0.43-0.97-0.97l0,0c0-0.53,0.43-0.97,0.97-0.97h19.62
			c0.53,0,0.97,0.43,0.97,0.97l0,0C138.32,187.76,137.89,188.19,137.36,188.19z"/>
		<path class="st5" d="M161.24,165.06h-19.62c-0.53,0-0.97-0.43-0.97-0.97l0,0c0-0.53,0.43-0.97,0.97-0.97h19.62
			c0.53,0,0.97,0.43,0.97,0.97l0,0C162.21,164.62,161.77,165.06,161.24,165.06z"/>
	</g>
	<g>
		<path class="st5" d="M166.37,156.63v1.35H81.71v-1.35c0-2.5,2.03-4.52,4.52-4.52h75.61C164.34,152.11,166.37,154.13,166.37,156.63
			z"/>
		<g>
			<path class="st6" d="M150.41,155.15c0,0.58-0.47,1.05-1.05,1.05c-0.58,0-1.05-0.47-1.05-1.05c0-0.58,0.47-1.05,1.05-1.05
				C149.94,154.1,150.41,154.57,150.41,155.15z"/>
			<path class="st6" d="M155.78,155.15c0,0.58-0.47,1.05-1.05,1.05s-1.05-0.47-1.05-1.05c0-0.58,0.47-1.05,1.05-1.05
				S155.78,154.57,155.78,155.15z"/>
			<path class="st6" d="M161.14,155.15c0,0.58-0.47,1.05-1.05,1.05s-1.05-0.47-1.05-1.05c0-0.58,0.47-1.05,1.05-1.05
				S161.14,154.57,161.14,155.15z"/>
		</g>
	</g>
	<path class="st2" d="M109.15,189.86H90.48c-2.68,0-4.86-2.18-4.86-4.86v-18.67c0-2.68,2.18-4.86,4.86-4.86h18.67
		c2.68,0,4.86,2.18,4.86,4.86v18.67C114.01,187.68,111.84,189.86,109.15,189.86z"/>
	<g>
		<polyline class="st7" points="95.53,121.32 91.82,125.03 95.56,128.77 		"/>
		<polyline class="st7" points="103.56,121.32 107.27,125.03 103.53,128.77 		"/>
		<line class="st7" x1="101.28" y1="121.32" x2="97.81" y2="128.77"/>
	</g>
	<path class="st7" d="M105.27,137.92H93.82c-3.95,0-7.15-3.2-7.15-7.15v-11.45c0-3.95,3.2-7.15,7.15-7.15h11.45
		c3.95,0,7.15,3.2,7.15,7.15v11.45C112.42,134.72,109.22,137.92,105.27,137.92z"/>
	<path class="st8" d="M155.1,137.92h-32.28c-3.34,0-6.04-2.71-6.04-6.04v-13.69c0-3.34,2.71-6.04,6.04-6.04h32.28
		c3.34,0,6.04,2.71,6.04,6.04v13.69C161.14,135.22,158.44,137.92,155.1,137.92z"/>
	<path class="st5" d="M166.37,40.5v52.39c0,2.84-2.3,5.15-5.15,5.15H86.86c-2.84,0-5.15-2.3-5.15-5.15V40.5
		c0-2.84,2.31-5.15,5.15-5.15h74.37C164.07,35.35,166.37,37.65,166.37,40.5z"/>
	<path class="st2" d="M131.47,98.04H86.86c-2.84,0-5.15-2.3-5.15-5.15v-8.25l19.52-33.82c1.02-1.77,3.57-1.77,4.59,0l14.74,25.53
		l10.95,18.96C132.05,96.23,131.97,97.26,131.47,98.04z"/>
	<path class="st9" d="M150.72,98.04h-42.67l12.52-21.68l6.75-11.68c0.92-1.59,3.22-1.59,4.13,0L150.72,98.04z"/>
	<circle class="st9" cx="149.22" cy="51.9" r="12.27"/>
</g>
</svg>
