<?xml version="1.0" encoding="utf-8"?>
<!-- Generator: Adobe Illustrator 24.1.1, SVG Export Plug-In . SVG Version: 6.00 Build 0)  -->
<svg version="1.1" id="Layer_1" xmlns="http://www.w3.org/2000/svg" xmlns:xlink="http://www.w3.org/1999/xlink" x="0px" y="0px"
	 viewBox="0 0 250 250" style="enable-background:new 0 0 250 250;" xml:space="preserve">
<style type="text/css">
	.st0{fill:#7E9FFC;}
	.st1{fill:#437F9F;}
	.st2{fill:#3B7190;}
	.st3{fill:#74CBF3;}
	.st4{fill:#0080CF;}
	.st5{fill:#EDEDED;}
	.st6{fill:#28348A;}
	.st7{fill:#E3E3E3;}
	.st8{fill:#F2F2F2;}
</style>
<circle class="st0" cx="125" cy="125" r="118"/>
<g>
	<g>
		<g>
			<path class="st1" d="M48.92,177.49c-0.2-0.03-0.39-0.06-0.59-0.09c-2.38-1.92-3.19-4.42-3.19-7.45
				c0.05-31.76,0.03-63.5,0.03-95.26c0-5.76,2.87-8.61,8.63-8.62c5.52-0.01,11.05-0.02,16.56-0.03c0.6,0.25,0.68,0.81,0.7,1.32
				c0.1,2.95,0.13,5.91-0.02,8.87c-0.02,0.35-0.16,0.69-0.37,0.99c-0.76,0.63-1.69,0.53-2.58,0.53c-2.82,0.02-5.64-0.02-8.46,0.02
				c-2.53,0.02-2.88,0.39-2.92,2.97c-0.02,1.5-0.01,3-0.01,4.5c0,25.58-0.01,51.15,0.02,76.73c0,1.33-0.35,2.83,1.14,3.73
				c0.71,0.44,1.5,0.39,2.28,0.39c40.52,0,81.04,0.01,121.56-0.02c2.7,0,5.4-0.08,8.1-0.05c1.28,0.02,2.5-0.25,3.7-0.61
				c0.48-0.03,0.66,0.33,0.69,0.67c0.3,3.07,0.52,6.14-1.09,8.96c-0.65,1.14-1.42,2.25-2.87,2.55c-15.62,0.01-31.24-0.3-46.84,0.11
				c-10.26,0.27-20.52,0.53-30.76,0.22c-20.88-0.64-41.77-0.08-62.65-0.33C49.63,177.59,49.26,177.62,48.92,177.49z"/>
			<path class="st2" d="M190.61,177.41c3.75-3.27,3.36-7.65,3.2-11.97c-0.67-0.76-0.53-1.69-0.53-2.57c0-28.09-0.03-56.17,0-84.25
				c0.13-1.37,0.08-2.76,0.01-4.13c-0.15-2.88-1-5.42-3.68-6.97c-0.21-0.12-0.38-0.3-0.54-0.47c-0.12-0.13-0.21-0.29-0.35-0.85
				c3.49,0.04,6.88-0.14,10.28,0.13c3.48,0.68,5.76,3.47,5.96,7.31c0.02,0.48,0.01,0.96,0.01,1.44c0,31.51-0.02,63.02,0.02,94.53
				c0.01,3.13-0.81,5.76-3.24,7.8c-0.12,0-0.22,0.02-0.33,0.05C197.81,177.65,194.21,177.73,190.61,177.41z"/>
			<path class="st3" d="M192.67,177.13h-135c-6.89,0-12.49-5.59-12.49-12.49V76.39c0-6.89,5.59-12.49,12.49-12.49h135
				c6.89,0,12.49,5.59,12.49,12.49v88.26C205.15,171.54,199.57,177.13,192.67,177.13z"/>
		</g>
		<path class="st4" d="M217.27,182.68c-0.05-2.82-1.83-4.67-4.65-4.93l0,0c-0.49-0.52-1.12-0.32-1.7-0.33
			c-3.06-0.02-6.12-0.02-9.18-0.02c-0.21-0.13-0.42-0.19-0.66-0.16c-18.86,0.07-37.73,0.01-56.59,0.03c-0.72,0-1.44,0.02-2.16,0.02
			c-1.36-0.01-1.95,0.7-2.02,1.99c-0.05,0.96,0,1.92-0.07,2.88c-0.16,2.32-1.34,3.64-3.61,3.66c-7.75,0.08-15.5,0.08-23.24,0
			c-2.3-0.02-3.5-1.31-3.67-3.6c-0.07-1.08,0.02-2.16-0.11-3.24c-0.12-1.05-0.66-1.64-1.74-1.68c-0.72-0.03-1.44-0.02-2.16-0.02
			c-17.66,0-35.32,0-52.98,0c-1.14,0-2.29,0.06-3.42-0.07c-0.35-0.06-0.69-0.04-0.99,0.2c-2.7,0.02-5.4,0.12-8.1,0.03
			c-3.3-0.11-6.04,0.7-7.53,3.96c0,3.73,0,7.45,0,11.18c1.52,2.91,3.97,3.66,7.16,3.65c53.33-0.07,106.67-0.05,160.01-0.05
			c0.78,0,1.56-0.03,2.34-0.05c3.36,0.02,6.7,0.07,10.06,0.03c2.79-0.02,4.99-2.24,5.03-5.03
			C217.32,188.3,217.32,185.49,217.27,182.68z"/>
		<path class="st5" d="M180.48,166.05H69.85c-7.5,0-13.59-6.09-13.59-13.59V89.05c0-7.5,6.09-13.59,13.59-13.59h110.63
			c7.5,0,13.59,6.09,13.59,13.59v63.41C194.07,159.97,187.99,166.05,180.48,166.05z"/>
		<path class="st5" d="M140.81,179.54c0.05,1.84,0.63,3.87-1.11,5.42c-0.8,0.72-1.6,1.18-2.71,1.18
			c-7.99-0.02-15.98,0.01-23.98-0.02c-2.24-0.01-3.82-1.63-3.89-3.87c0-0.06,0.01-0.12,0-0.18c-0.16-1.47,0.67-3.38-0.39-4.31
			c-0.19-0.16-0.4-0.28-0.63-0.35c0.07-0.1,0.13-0.19,0.2-0.28h32.63c0.15,0.21,0.28,0.43,0.41,0.65
			C140.93,178.08,140.78,178.62,140.81,179.54z"/>
	</g>
	<path class="st6" d="M124.8,142.85c-11.65,0-23.3,0-34.96,0c-0.6,0-1.21,0.03-1.8-0.04c-1.39-0.16-2.16-1.07-2.31-2.37
		c-0.16-1.34,0.49-2.29,1.8-2.78c0.7-0.26,1.41-0.22,2.14-0.22c23.54,0,47.09,0,70.63,0.01c0.65,0,1.33,0.02,1.96,0.18
		c1.41,0.37,2.14,1.38,1.97,2.81c-0.16,1.39-1,2.34-2.49,2.38c-2.28,0.06-4.56,0.03-6.84,0.03
		C144.86,142.85,134.84,142.85,124.8,142.85z"/>
	<path class="st6" d="M112.19,154.71c-7.5,0-15,0-22.5,0c-0.54,0-1.09,0.05-1.62-0.04c-1.41-0.25-2.29-1.12-2.34-2.56
		c-0.06-1.53,0.84-2.45,2.31-2.76c0.46-0.1,0.95-0.05,1.44-0.05c15.13,0,30.25,0,45.37,0c0.3,0,0.6-0.02,0.9,0.01
		c1.63,0.11,2.83,1.24,2.84,2.69c0.01,1.45-1.18,2.63-2.81,2.7c-1.32,0.06-2.64,0.02-3.96,0.02
		C125.27,154.71,118.73,154.71,112.19,154.71z"/>
	<path class="st4" d="M174.6,125.1H81.99c-3.3,0-5.97-2.67-5.97-5.97V61.2c0-3.3,2.67-5.97,5.97-5.97h92.62
		c3.3,0,5.97,2.67,5.97,5.97v57.93C180.58,122.42,177.9,125.1,174.6,125.1z"/>
	<g>
		<path class="st7" d="M173.95,100.91c-0.01,2.86-0.52,3.55-3.21,4.47c-13.23,4.51-26.4,9.19-39.64,13.66
			c-0.49,0.16-0.95,0.38-1.4,0.61l-3.04-0.54c-0.58-0.02-1.14-0.12-1.68-0.27h0.19c0.71,0.02,1.42,0.13,2.07-0.25
			c0.81-0.72,0.52-1.68,0.52-2.54c0.02-22.08,0.01-44.15,0.02-66.23c0-1.11-0.29-2.29,0.58-3.27c5.37-1.85,10.74-3.69,16.1-5.55
			c8.31-2.88,16.61-5.78,24.91-8.66c3.24-1.12,4.05-0.54,4.05,2.81c0.01,5.16,0.02,10.31,0.04,15.47c0.58,0.65,0.48,1.46,0.49,2.23
			C173.96,68.86,173.97,84.88,173.95,100.91z"/>
		<path class="st8" d="M127.53,119.06c-0.3,0.04-0.58,0.05-0.86,0.04c-0.58-0.02-1.14-0.12-1.68-0.27c-0.11-0.03-0.21-0.06-0.3-0.09
			c-0.27-0.09-0.55-0.18-0.82-0.27c-12.77-4.43-25.53-8.86-38.31-13.26c-2.17-0.75-2.76-1.55-2.76-3.88
			c-0.03-16.29-0.02-32.56-0.01-48.85c0-0.66-0.03-1.33,0.47-1.87c0.02-5.46,0.02-10.92,0.05-16.38c0.02-2.03,1.13-2.9,3.01-2.24
			c14.02,4.83,28.04,9.69,42.05,14.53c-0.01,23.64,0,47.28-0.04,70.92C128.32,117.96,129.1,119.19,127.53,119.06z"/>
	</g>
</g>
</svg>
