<?xml version="1.0" encoding="utf-8"?>
<!-- Generator: Adobe Illustrator 24.1.1, SVG Export Plug-In . SVG Version: 6.00 Build 0)  -->
<svg version="1.1" id="Layer_1" xmlns="http://www.w3.org/2000/svg" xmlns:xlink="http://www.w3.org/1999/xlink" x="0px" y="0px"
	 viewBox="0 0 250 250" style="enable-background:new 0 0 250 250;" xml:space="preserve">
<style type="text/css">
	.st0{fill:#6995F7;}
	.st1{fill:#0A0A4F;}
	.st2{fill:#28348A;}
	.st3{fill:#74CBF3;}
	.st4{fill:#EDEDED;}
	.st5{fill:none;stroke:#28348A;stroke-width:5;stroke-linecap:round;stroke-linejoin:round;stroke-miterlimit:10;}
</style>
<circle class="st0" cx="125" cy="125" r="118"/>
<g>
	<g>
		<path class="st1" d="M196.03,187.66h-1.67c-2.61,0-4.74-2.13-4.74-4.74V76.29c0-2.61,2.13-4.74,4.74-4.74h1.67
			c2.61,0,4.74,2.13,4.74,4.74v106.63C200.77,185.53,198.63,187.66,196.03,187.66z"/>
		<path class="st2" d="M200.9,123.57c0,10.62-0.03,21.23,0.03,31.85c0.01,1.33-0.37,1.66-1.66,1.61c-2.63-0.1-5.27-0.1-7.9,0
			c-1.34,0.05-1.77-0.28-1.75-1.69c0.07-8.41,0.04-16.82,0.04-25.24c0-12.76,0.02-25.53-0.03-38.29c-0.01-1.4,0.4-1.75,1.75-1.69
			c2.57,0.1,5.16,0.12,7.73,0c1.44-0.07,1.85,0.3,1.84,1.78C200.87,102.45,200.9,113.01,200.9,123.57z"/>
		<path class="st3" d="M200.9,175.29c0,3.71-0.03,7.41,0.02,11.12c0.02,0.99-0.27,1.28-1.27,1.25c-2.93-0.06-5.85-0.06-8.78,0
			c-1.02,0.02-1.26-0.31-1.25-1.27c0.04-7.53,0.04-15.06,0-22.59c-0.01-0.99,0.27-1.28,1.27-1.25c2.93,0.06,5.85,0.06,8.78,0
			c1.02-0.02,1.26,0.31,1.25,1.27C200.87,167.64,200.9,171.46,200.9,175.29z"/>
		<path class="st3" d="M192.57,79.67c0-1.16-0.05-2.32,0.01-3.47c0.09-1.65,1.24-2.75,2.76-2.75c1.52,0,2.7,1.11,2.75,2.76
			c0.07,2.43-0.01,4.86,0.04,7.29c0.02,0.82-0.23,1.06-1.07,1.1c-4.51,0.23-4.51,0.26-4.51-4.24
			C192.56,80.13,192.56,79.9,192.57,79.67C192.57,79.67,192.57,79.67,192.57,79.67z"/>
		<path class="st2" d="M200.94,187.76c-1.9,4.43-3.67,8.57-5.65,13.18c-2.01-4.67-3.76-8.79-5.55-12.9
			c-0.46-1.06-0.1-1.32,0.95-1.31c3.08,0.04,6.16,0.02,9.58,0.02C200.79,186.75,201.15,187.28,200.94,187.76z"/>
	</g>
	<rect x="49" y="59.02" class="st3" width="124.6" height="151.48"/>
	<rect x="58.9" y="61.64" class="st4" width="104.81" height="138.87"/>
	<path class="st3" d="M126.04,54.85c0.01-0.18,0.03-0.37,0.03-0.56c0-8.16-6.61-14.78-14.77-14.78c-8.16,0-14.77,6.62-14.77,14.78
		c0,0.19,0.02,0.38,0.03,0.56h-7.9c-1.3,0-2.35,1.05-2.35,2.35v11.2c0,1.3,1.05,2.35,2.35,2.35h45.29c1.3,0,2.35-1.05,2.35-2.35
		V57.2c0-1.3-1.05-2.35-2.35-2.35H126.04z"/>
	<path class="st2" d="M94.61,92.91c7.43,0,14.85-0.01,22.28,0c3.12,0,4.89,1.2,4.93,3.27c0.04,2.09-1.76,3.37-4.81,3.37
		c-15.1,0.01-30.2,0.01-45.3,0c-3.06,0-4.84-1.29-4.8-3.38c0.04-2.08,1.81-3.26,4.93-3.27C79.43,92.91,87.02,92.91,94.61,92.91z"/>
	<path class="st2" d="M94.61,132.85c7.43,0,14.85-0.01,22.28,0c3.12,0,4.89,1.2,4.93,3.27c0.04,2.09-1.76,3.37-4.81,3.38
		c-15.1,0.01-30.2,0.01-45.3,0c-3.06,0-4.84-1.29-4.8-3.38c0.04-2.08,1.81-3.26,4.93-3.27C79.43,132.85,87.02,132.85,94.61,132.85z"
		/>
	<path class="st2" d="M94.61,173.26c7.43,0,14.85-0.01,22.28,0c3.12,0,4.89,1.2,4.93,3.27c0.04,2.09-1.76,3.37-4.81,3.37
		c-15.1,0.01-30.2,0.01-45.3,0c-3.06,0-4.84-1.29-4.8-3.38c0.04-2.08,1.81-3.26,4.93-3.27C79.43,173.25,87.02,173.26,94.61,173.26z"
		/>
	<path class="st2" d="M94.61,108.7c7.43,0,14.85-0.01,22.28,0c3.12,0,4.89,1.2,4.93,3.27c0.04,2.09-1.76,3.37-4.81,3.37
		c-15.1,0.01-30.2,0.01-45.3,0c-3.06,0-4.84-1.29-4.8-3.38c0.04-2.08,1.81-3.26,4.93-3.27C79.43,108.7,87.02,108.7,94.61,108.7z"/>
	<path class="st2" d="M94.61,148.64c7.43,0,14.85-0.01,22.28,0c3.12,0,4.89,1.2,4.93,3.27c0.04,2.09-1.76,3.37-4.81,3.37
		c-15.1,0.01-30.2,0.01-45.3,0c-3.06,0-4.84-1.29-4.8-3.38c0.04-2.08,1.81-3.26,4.93-3.27C79.43,148.64,87.02,148.64,94.61,148.64z"
		/>
	<path class="st2" d="M94.61,189.05c7.43,0,14.85-0.01,22.28,0c3.12,0,4.89,1.2,4.93,3.27c0.04,2.09-1.76,3.37-4.81,3.37
		c-15.1,0.01-30.2,0.01-45.3,0c-3.06,0-4.84-1.29-4.8-3.38c0.04-2.08,1.81-3.26,4.93-3.27C79.43,189.04,87.02,189.05,94.61,189.05z"
		/>
	<path class="st3" d="M141.78,111.96h-4.64c-4.36,0-7.9-3.54-7.9-7.9v-2.78c0-4.36,3.54-7.9,7.9-7.9h4.64c4.36,0,7.9,3.54,7.9,7.9
		v2.78C149.68,108.42,146.15,111.96,141.78,111.96z"/>
	<path class="st3" d="M141.78,151.9h-4.64c-4.36,0-7.9-3.54-7.9-7.9v-2.78c0-4.36,3.54-7.9,7.9-7.9h4.64c4.36,0,7.9,3.54,7.9,7.9
		V144C149.68,148.36,146.15,151.9,141.78,151.9z"/>
	<path class="st3" d="M141.78,192.3h-4.64c-4.36,0-7.9-3.54-7.9-7.9v-2.78c0-4.36,3.54-7.9,7.9-7.9h4.64c4.36,0,7.9,3.54,7.9,7.9
		v2.78C149.68,188.77,146.15,192.3,141.78,192.3z"/>
	<polyline class="st5" points="134.84,99.9 138.67,107.9 153.19,93.38 	"/>
	<polyline class="st5" points="134.84,139.84 138.67,147.84 153.19,133.32 	"/>
	<polyline class="st5" points="134.84,180.25 138.67,188.25 153.19,173.73 	"/>
	<path class="st2" d="M116.08,60.63c-0.01,3.04-2.49,5.55-5.49,5.57c-3.06,0.02-5.61-2.59-5.55-5.69c0.05-3.09,2.49-5.47,5.58-5.44
		C113.66,55.1,116.09,57.57,116.08,60.63z"/>
</g>
</svg>
