<?xml version="1.0" encoding="utf-8"?>
<!-- Generator: Adobe Illustrator 24.1.1, SVG Export Plug-In . SVG Version: 6.00 Build 0)  -->
<svg version="1.1" id="Layer_1" xmlns="http://www.w3.org/2000/svg" xmlns:xlink="http://www.w3.org/1999/xlink" x="0px" y="0px"
	 viewBox="0 0 250 250" style="enable-background:new 0 0 250 250;" xml:space="preserve">
<style type="text/css">
	.st0{fill:#7E9FFC;}
	.st1{fill:#0679B2;}
	.st2{fill:#0080CF;}
	.st3{fill:#F2F2F2;}
	.st4{fill:#A25418;}
	.st5{fill:#EAAC87;}
	.st6{fill:#E7906F;}
	.st7{fill:#28348A;}
	.st8{fill:#74CBF3;}
	.st9{fill:#EAAC88;}
</style>
<circle class="st0" cx="125" cy="125" r="118"/>
<g>
	<g>
		<rect x="91.7" y="184.52" class="st1" width="70.87" height="14.23"/>
		<path class="st2" d="M172.53,214.12H82.02c-4.24,0-7.68-3.44-7.68-7.68l0,0c0-4.24,3.44-7.68,7.68-7.68h90.5
			c4.24,0,7.68,3.44,7.68,7.68l0,0C180.21,210.68,176.77,214.12,172.53,214.12z"/>
	</g>
	<g>
		<path class="st2" d="M206.35,184.52H43.65c-7.25,0-13.13-5.88-13.13-13.13V63.9c0-7.25,5.88-13.13,13.13-13.13h162.71
			c7.25,0,13.13,5.88,13.13,13.13V171.4C219.49,178.65,213.6,184.52,206.35,184.52z"/>
		<path class="st3" d="M192.1,171.43H57.9c-7.89,0-14.29-6.4-14.29-14.29V78.72c0-7.89,6.4-14.29,14.29-14.29h134.2
			c7.89,0,14.29,6.4,14.29,14.29v78.42C206.4,165.04,199.99,171.43,192.1,171.43z"/>
	</g>
	<g>
		<path class="st4" d="M182.47,53.19c-0.2-0.72-0.35-1.48-1.1-1.89c-2.59-7.27-7.8-11.61-15.12-13.66
			c-5.38-1.51-10.88-1.92-16.44-1.67l0,0l0,0c-1.7-0.29-3.35,0.16-5.01,0.35c-10.05,1.12-18.45,4.73-22.31,15.05
			c-0.83,0.68-0.99,1.68-1.24,2.63c-0.76,2.9-0.98,5.85-0.82,8.83c0.1,3.09,0.53,6.11,1.67,9c1.95,1.5,3.12,3.41,3.42,5.88
			c0.1,0.87,0.55,1.64,1.48,1.96c2.09,0.08,2.86-0.43,3.31-2.44c0.73-3.24,1.01-6.53,1.26-9.83c0.29-3.63,0.57-7.23,3-10.24
			c2.15-2.67,3.95-2.85,6.34-0.4c2.93,2.99,6.38,5.16,10.2,6.83c4.98,2.18,10.27,3.58,15,6.33c1.27,0.38,2.02,1.89,3.51,1.79
			c-0.01,0.69,0.55,1.08,0.95,1.54c1.17,1.32,2.14,2.76,2.92,4.34c1.07,2.19,1.48,2.41,3.95,2.08c0.18-0.08,0.34-0.18,0.47-0.33
			c0.44-0.5,0.48-1.14,0.55-1.76c0.29-2.26,1.12-4.2,3.18-5.42c1.55-2.93,1.56-6.21,2.06-9.37
			C183.87,59.53,183.35,56.33,182.47,53.19z"/>
		<path class="st5" d="M127.02,79.34c1.92,0.23,2.66-0.84,2.96-2.55c0.75-4.23,1.06-8.51,1.45-12.77c0.28-3.11,1.47-5.78,3.52-8.06
			c1.71-1.89,4-2.09,5.54-0.35c4.16,4.7,9.6,7.19,15.31,9.33c3.61,1.35,7.3,2.51,10.55,4.67c0.33,0.4,0.49,0.87,0.48,1.38
			c-0.1,5.3,0.5,10.62-0.35,15.88c-1.57,9.81-6.94,16.79-16.05,20.78c-3.42,1.5-3.4,1.43-3.47,5.21c-0.03,2.04,0.35,4.11-0.31,6.13
			c-0.13,0.18-0.31,0.25-0.54,0.22c-0.65-0.58-0.52-1.37-0.53-2.1c-0.03-2.19-0.03-4.37-0.01-6.56c0.01-1.07-0.41-1.77-1.45-2.11
			c-10.36-3.43-16.18-10.77-18.37-21.27c-0.23-2.06-0.17-4.12-0.08-6.17C125.73,80.24,125.61,79.11,127.02,79.34z"/>
		<path class="st6" d="M146.48,119.07c-0.01-2.99,0.03-5.99-0.04-8.98c-0.03-1.17,0.27-1.66,1.48-2.07
			c9.75-3.22,15.68-10.02,17.91-19.95c0.98-4.34,0.43-8.81,0.49-13.22c0.03-1.75,0.02-3.5,0.03-5.23c1.32,0.26,2.04,1.56,3.31,1.91
			c1.91,2.09,3.71,4.23,4.77,6.95c0.56,1.44,2.02,0.8,3.12,0.87c0.48,2.09,0.11,4.21,0.24,6.3c-0.21-2.1,0.29-4.23-0.24-6.32
			c0.65-1.16,0.4-2.52,0.84-3.73c0.55-1.51,1.05-3.08,2.98-3.37c2.96,0.19,5.3,2,5.84,4.87c0.73,3.89-0.15,7.45-2.9,10.4
			c-1.77,1.9-3.44,2.18-5.7,0.94c-0.9-0.49-1.16-0.29-1.38,0.59c-2.49,9.9-8.67,16.31-18.42,19.26c-0.9,0.28-1.1,0.8-1.09,1.65
			c0.03,3.05,0,6.11-0.01,9.17c-0.16,0.19-0.36,0.38-0.61,0.41c-3.34,0.34-6.69,0.36-10.03-0.02
			C146.83,119.47,146.64,119.27,146.48,119.07z"/>
		<path class="st6" d="M126.27,87.72c-2.6,2.07-4.93,1.93-7-0.57c-2.22-2.67-3.18-5.81-2.73-9.25c0.45-3.48,2.79-5.24,6.04-6.01
			c2.22,0.96,2.92,2.9,3.28,5.06c0.15,0.92,0.24,1.85,1.17,2.39c-0.85,0.14-0.8,0.78-0.8,1.4C126.24,83.07,126.25,85.4,126.27,87.72
			z"/>
	</g>
	<g>
		<path class="st7" d="M189.7,136.76c-0.29-7.64-3.87-13.15-10.61-16.34c-3.28-1.56-6.78-1.33-10.24-1.26
			c-0.45,0.61-0.54,1.2-0.03,1.79c-0.03,0.01-0.04,0.02-0.07,0.03c-0.48,0.65-0.39,1.42-0.43,2.15c-0.22,4.66-2.57,7.03-7.11,7.08
			c-3.78,0.04-7.56,0.01-11.34,0.01c-6.04,0-7.89-1.95-7.95-8.25c-0.01-0.95,0.29-2.02-0.64-2.76c-10.44-0.03-20.88-0.04-31.32-0.07
			c-2.54-0.01-2.79-0.27-2.79-2.87c-0.02-8.04-0.03-16.08-0.04-24.12c-4.92,0.65-9.85,0.59-14.77,0.02
			c-0.01,10.12-0.04,20.23-0.03,30.35c0.01,7.1,4.71,12,11.53,12.04c4.99,0.03,9.98,0.04,14.97-0.03c1.24-0.02,1.65,0.3,1.64,1.65
			c-0.07,5.3-0.03,10.62-0.03,15.92c0.78,0.81,1.79,0.63,2.73,0.63c17.63,0.02,35.25,0.02,52.87,0.01c0.78,0,1.57,0.03,2.31-0.29
			c0.16-0.1,0.28-0.22,0.38-0.34c3.68,0,7.35,0,11.03,0C189.75,146.97,189.9,141.86,189.7,136.76z"/>
		<g>
			<path class="st8" d="M102.48,41.06c-0.38,7.29,0.59,14.55,0.31,21.85c0.44,0.48,0.55,1.1,0.55,1.72
				c0.04,3.65,0.05,7.3-0.01,10.96c-0.01,0.56-0.1,1.12-0.42,1.58c-1.98,0.87-3.97,0.8-5.98,0.06c-0.78-4.77-0.9-9.53,0.04-14.29
				c0.01-3.89,0.03-7.78,0.03-11.66c0.01-3.16-0.02-6.33,0.03-9.48c0.03-1.73,1.06-3,2.54-3.08
				C101.11,38.65,102.23,39.33,102.48,41.06z"/>
			<path class="st9" d="M102.71,77.07c0.66,0.02,1.32,0.04,1.97,0.04c2.95,0.02,4.08,1.07,4.15,4.08c0.06,2.42,0.05,4.85,0,7.28
				c-0.03,1.46-0.36,2.85-1.73,3.67c-0.49,0.91-1.35,0.93-2.18,0.94c-3.39,0.03-6.78,0.03-10.17,0c-0.91-0.01-1.79-0.11-2.41-0.93
				c-1.15-1.16-1.57-2.55-1.48-4.22c0.1-2.24,0.02-4.49,0.03-6.74c0.02-2.88,1.15-4.04,3.96-4.07c0.72-0.01,1.44-0.03,2.16-0.05
				C98.91,77.07,100.82,77.07,102.71,77.07z"/>
			<path class="st2" d="M168.85,119.15c0.01,0.61,0.02,1.23,0.02,1.85c-0.03,0.93-0.04,1.87-0.08,2.8
				c-0.14,3.98-2.82,6.85-6.64,6.91c-4.8,0.07-9.61,0.08-14.42-0.01c-3.68-0.06-6.31-2.85-6.44-6.65c-0.06-1.62-0.03-3.24-0.03-4.86
				c2.7-0.03,5.4-0.05,8.1-0.08c0.12,0.01,0.24-0.01,0.35-0.04c3.61,0.01,7.21,0.03,10.82,0.03
				C163.31,119.12,166.08,119.13,168.85,119.15z"/>
		</g>
	</g>
	<path class="st8" d="M189.89,157.21H56.7c-1.57,0-2.85-1.28-2.85-2.85l0,0c0-1.57,1.28-2.85,2.85-2.85h133.19
		c1.57,0,2.85,1.28,2.85,2.85l0,0C192.73,155.92,191.45,157.21,189.89,157.21z"/>
	<circle class="st7" cx="78.33" cy="154.36" r="6.83"/>
	<path class="st7" d="M62.89,109.11c0-4.48-0.01-8.96,0.01-13.45c0-0.56-0.22-1.26,0.52-1.56c0.75-0.29,1.14,0.37,1.57,0.75
		c4.84,4.4,9.64,8.82,14.49,13.19c0.98,0.88,1.04,1.47,0.03,2.38c-4.87,4.36-9.67,8.78-14.5,13.18c-0.44,0.41-0.87,0.98-1.61,0.7
		c-0.78-0.29-0.49-1-0.49-1.55C62.88,118.2,62.89,113.66,62.89,109.11z"/>
</g>
</svg>
